<svg id="svg" version="1.1" width="400" height="400" viewBox="0 0 400 400" xmlns="http://www.w3.org/2000/svg" xmlns:xlink="http://www.w3.org/1999/xlink"><g id="svgg"><path id="path0" d="M91.875 122.498 C 91.875 155.416,91.980 172.188,92.188 172.188 C 92.390 172.188,92.500 176.146,92.500 183.438 C 92.500 190.729,92.390 194.688,92.188 194.688 C 91.981 194.688,91.875 205.625,91.875 226.875 L 91.875 259.063 68.906 259.063 C 46.354 259.063,45.926 259.074,45.312 259.688 C 44.375 260.625,44.323 318.323,45.259 319.170 C 45.937 319.784,184.531 319.968,193.594 319.367 C 237.684 316.447,271.417 289.413,285.413 245.781 C 287.174 240.290,290.000 228.345,290.000 226.390 C 290.000 225.998,285.574 225.938,256.710 225.938 L 223.420 225.938 222.585 227.891 C 217.339 240.166,208.809 248.705,198.031 252.470 C 191.556 254.732,191.029 254.783,172.422 254.917 L 155.625 255.039 155.625 196.241 L 155.625 137.443 171.953 137.581 C 193.712 137.765,197.681 138.560,206.738 144.546 C 223.069 155.340,231.576 182.711,227.203 210.391 L 226.968 211.875 259.376 211.875 L 291.785 211.875 291.988 209.766 C 292.100 208.605,292.283 204.598,292.396 200.859 L 292.600 194.063 290.368 194.063 L 288.137 194.063 288.053 201.016 L 287.969 207.969 285.234 208.059 L 282.500 208.149 282.500 201.120 L 282.500 194.091 280.391 193.999 L 278.281 193.906 278.190 191.328 L 278.100 188.750 285.192 188.750 L 292.284 188.750 292.072 184.297 C 291.266 167.376,287.621 150.626,281.664 136.474 C 280.067 132.680,280.535 132.901,276.875 134.218 C 275.758 134.620,273.719 135.326,272.344 135.787 C 270.969 136.247,269.409 136.817,268.878 137.053 C 268.347 137.289,267.152 137.688,266.222 137.941 C 264.006 138.542,263.472 138.719,258.125 140.630 C 255.633 141.521,253.242 142.363,252.813 142.501 C 252.383 142.639,250.635 143.258,248.927 143.876 C 242.091 146.352,239.976 144.249,242.957 137.941 C 243.763 136.237,244.535 134.563,244.673 134.219 C 244.812 133.875,245.493 132.398,246.186 130.938 C 248.635 125.776,249.688 123.496,249.688 123.349 C 249.688 123.220,250.967 120.436,253.597 114.844 C 254.383 113.172,255.783 110.131,257.623 106.094 C 258.250 104.719,258.921 103.318,259.113 102.981 C 259.422 102.440,259.170 102.096,256.997 100.079 C 239.025 83.399,217.318 74.419,191.875 73.139 C 189.211 73.005,165.621 72.876,139.453 72.852 L 91.875 72.809 91.875 122.498 M262.930 110.234 C 262.318 111.566,261.422 113.500,260.938 114.531 C 260.453 115.563,259.569 117.461,258.972 118.750 C 258.375 120.039,257.308 122.333,256.600 123.847 C 255.892 125.361,255.313 126.663,255.313 126.741 C 255.313 126.897,251.720 134.504,251.213 135.421 C 250.691 136.365,250.937 136.321,255.963 134.561 C 258.613 133.634,261.273 132.708,261.875 132.505 C 262.477 132.302,263.250 132.019,263.594 131.876 C 263.938 131.733,264.922 131.395,265.781 131.125 C 268.083 130.403,277.015 127.412,277.130 127.325 C 277.692 126.900,270.963 116.336,266.344 110.391 C 263.932 107.286,264.276 107.301,262.930 110.234 M233.511 117.578 C 239.599 123.885,240.250 125.081,238.745 127.195 C 236.909 129.773,235.365 129.177,230.771 124.117 C 225.564 118.381,225.409 117.966,227.643 115.732 C 229.445 113.930,230.226 114.176,233.511 117.578 M232.047 133.752 C 235.026 134.422,235.734 138.182,233.134 139.527 C 232.374 139.920,231.274 139.964,226.502 139.794 L 220.781 139.590 219.609 138.426 C 218.034 136.860,218.027 135.744,219.584 134.187 L 220.731 133.040 225.772 133.258 C 228.544 133.377,231.368 133.600,232.047 133.752 M58.125 140.000 L 58.125 145.625 63.906 145.625 L 69.688 145.625 69.688 140.000 L 69.688 134.375 63.906 134.375 L 58.125 134.375 58.125 140.000 M237.663 146.430 C 240.011 147.545,240.240 150.796,238.077 152.311 C 237.705 152.572,236.139 153.951,234.599 155.377 C 229.948 159.680,228.792 160.090,226.835 158.133 C 224.768 156.066,225.455 154.771,231.464 149.401 C 235.456 145.834,235.929 145.607,237.663 146.430 M261.489 148.948 C 263.216 149.411,270.000 157.498,270.000 159.094 C 270.000 161.613,267.651 162.928,265.312 161.719 C 263.539 160.802,257.188 153.166,257.188 151.951 C 257.188 149.905,259.371 148.381,261.489 148.948 M250.226 152.804 C 251.585 153.633,251.688 154.265,251.435 160.251 C 251.140 167.222,250.716 168.125,247.731 168.125 C 245.079 168.125,244.832 167.501,244.907 160.983 C 244.999 152.946,246.550 150.562,250.226 152.804 M58.125 166.836 L 58.125 172.813 64.063 172.813 L 70.000 172.813 70.000 167.031 L 70.000 161.250 65.039 161.250 C 62.311 161.250,59.639 161.162,59.102 161.055 L 58.125 160.859 58.125 166.836 M267.377 189.111 C 268.945 189.848,270.748 191.730,270.417 192.284 C 270.294 192.489,269.554 193.388,268.771 194.282 L 267.347 195.908 266.564 195.180 C 263.168 192.020,259.197 195.311,260.616 200.109 C 261.800 204.114,265.229 204.301,265.378 200.369 L 265.469 197.969 267.891 197.877 L 270.313 197.786 270.313 201.834 L 270.313 205.882 269.385 206.663 C 263.295 211.787,255.156 207.083,255.156 198.438 C 255.156 190.563,260.992 186.110,267.377 189.111 M240.966 189.178 C 247.063 191.358,248.536 201.451,243.427 206.044 C 241.421 207.848,240.283 208.125,234.886 208.125 L 230.313 208.125 230.313 198.438 L 230.313 188.750 235.078 188.764 C 238.132 188.773,240.247 188.922,240.966 189.178 M253.438 198.450 L 253.438 208.149 250.703 208.059 L 247.969 207.969 247.886 198.754 C 247.786 187.690,247.480 188.750,250.771 188.750 L 253.438 188.750 253.438 198.450 M277.344 198.438 L 277.344 207.969 274.609 208.059 L 271.875 208.149 271.875 198.438 L 271.875 188.726 274.609 188.816 L 277.344 188.906 277.344 198.438 M303.186 188.983 C 305.024 189.038,308.118 189.038,310.061 188.983 C 312.004 188.929,310.500 188.883,306.719 188.883 C 302.938 188.883,301.348 188.928,303.186 188.983 M318.219 188.983 C 319.904 189.039,322.576 189.039,324.157 188.983 C 325.738 188.926,324.359 188.880,321.094 188.880 C 317.828 188.881,316.535 188.927,318.219 188.983 M346.641 188.978 C 347.285 189.045,348.340 189.045,348.984 188.978 C 349.629 188.910,349.102 188.855,347.813 188.855 C 346.523 188.855,345.996 188.910,346.641 188.978 M355.208 188.958 C 355.094 189.073,355.002 189.319,355.005 189.505 C 355.008 189.717,355.099 189.703,355.248 189.468 C 355.388 189.249,356.457 189.047,357.822 188.983 L 360.156 188.874 357.786 188.812 C 356.483 188.778,355.323 188.844,355.208 188.958 M355.111 192.656 C 355.110 194.203,355.163 194.875,355.228 194.150 C 355.294 193.425,355.295 192.159,355.230 191.338 C 355.165 190.516,355.112 191.109,355.111 192.656 M58.125 199.844 L 58.125 205.625 64.063 205.625 L 70.000 205.625 70.000 199.844 L 70.000 194.063 64.063 194.063 L 58.125 194.063 58.125 199.844 M235.761 194.470 C 235.675 194.695,235.644 196.628,235.693 198.767 L 235.781 202.656 237.223 202.750 C 240.828 202.984,242.576 197.490,239.712 194.931 C 238.635 193.969,236.069 193.670,235.761 194.470 M355.116 204.375 C 355.116 206.180,355.167 206.918,355.230 206.016 C 355.294 205.113,355.294 203.637,355.230 202.734 C 355.167 201.832,355.116 202.570,355.116 204.375 M327.266 204.531 C 327.270 205.219,327.334 205.463,327.409 205.074 C 327.483 204.686,327.480 204.123,327.402 203.824 C 327.324 203.526,327.263 203.844,327.266 204.531 M321.875 207.813 L 316.406 207.991 321.778 208.058 C 325.097 208.099,327.224 208.006,327.344 207.813 C 327.450 207.641,327.493 207.530,327.440 207.567 C 327.387 207.604,324.883 207.714,321.875 207.813 M305.555 208.042 C 306.290 208.108,307.415 208.107,308.055 208.040 C 308.695 207.973,308.094 207.918,306.719 207.920 C 305.344 207.921,304.820 207.976,305.555 208.042 M347.109 208.039 C 347.668 208.108,348.582 208.108,349.141 208.039 C 349.699 207.969,349.242 207.913,348.125 207.913 C 347.008 207.913,346.551 207.969,347.109 208.039 M356.165 208.038 C 356.720 208.107,357.704 208.108,358.352 208.041 C 359.001 207.973,358.547 207.916,357.344 207.915 C 356.141 207.914,355.610 207.969,356.165 208.038 M44.375 220.625 L 44.375 228.750 52.500 228.750 L 60.625 228.750 60.625 220.625 L 60.625 212.500 52.500 212.500 L 44.375 212.500 44.375 220.625 " stroke="none" fill="#7304b3" fill-rule="evenodd"></path><path id="path1" d="M258.818 103.967 C 258.198 105.404,256.531 109.022,254.168 114.063 C 253.564 115.352,252.950 116.688,252.805 117.031 C 252.659 117.375,251.678 119.484,250.625 121.719 C 249.572 123.953,248.592 126.063,248.449 126.406 C 248.305 126.750,247.541 128.408,246.750 130.090 C 245.959 131.772,245.313 133.206,245.313 133.277 C 245.313 133.348,244.458 135.200,243.415 137.392 C 240.548 143.413,241.782 146.023,246.737 144.419 C 248.625 143.808,255.707 141.367,256.563 141.034 C 258.500 140.277,264.196 138.319,265.469 137.972 C 266.328 137.737,268.227 137.103,269.688 136.563 C 271.148 136.023,273.188 135.302,274.219 134.962 C 275.250 134.621,277.037 133.988,278.190 133.555 L 280.286 132.768 278.980 130.134 C 277.479 127.108,277.817 127.230,274.375 128.466 C 272.914 128.991,270.664 129.750,269.375 130.152 C 268.086 130.554,264.570 131.747,261.563 132.804 C 258.555 133.860,255.250 135.000,254.219 135.336 C 253.188 135.672,252.100 136.085,251.801 136.255 C 250.868 136.784,250.602 136.230,251.234 135.074 C 251.512 134.565,255.096 126.786,256.163 124.375 C 256.429 123.773,257.381 121.734,258.278 119.844 C 259.175 117.953,260.157 115.844,260.460 115.156 C 261.212 113.453,262.286 111.118,263.247 109.097 L 264.048 107.413 262.833 105.972 C 262.165 105.180,261.134 104.067,260.542 103.499 L 259.467 102.466 258.818 103.967 M228.259 115.301 C 225.977 116.225,226.037 118.823,228.399 121.289 C 229.022 121.939,230.586 123.657,231.875 125.107 C 235.227 128.877,236.457 129.300,238.322 127.321 C 240.205 125.325,239.733 124.326,234.157 118.512 C 230.620 114.826,230.115 114.551,228.259 115.301 M67.813 129.333 L 67.813 133.978 69.262 134.176 C 70.060 134.286,72.169 134.375,73.950 134.375 L 77.188 134.375 77.188 129.531 L 77.188 124.688 72.500 124.688 L 67.813 124.688 67.813 129.333 M219.711 134.247 C 217.745 135.902,218.828 138.866,221.587 139.381 C 224.842 139.989,232.447 139.849,233.368 139.163 C 234.630 138.224,234.750 135.773,233.586 134.680 C 232.028 133.217,221.333 132.882,219.711 134.247 M42.813 154.068 L 42.813 162.511 50.391 162.427 L 57.969 162.344 58.069 161.641 C 58.133 161.189,58.384 160.938,58.772 160.938 C 59.351 160.938,59.375 160.640,59.375 153.478 L 59.375 146.019 58.203 145.826 C 57.559 145.719,53.832 145.630,49.922 145.628 L 42.813 145.625 42.813 154.068 M235.313 146.480 C 235.055 146.579,232.910 148.408,230.547 150.545 L 226.250 154.429 226.250 155.832 C 226.250 158.474,228.615 159.846,230.781 158.460 C 232.370 157.443,238.841 151.285,239.286 150.365 C 240.313 148.244,237.606 145.597,235.313 146.480 M259.219 149.226 C 257.322 150.214,256.804 152.675,258.214 153.999 C 258.607 154.368,260.048 155.993,261.417 157.611 C 265.563 162.509,268.546 163.452,269.673 160.221 C 270.348 158.283,269.939 157.590,265.019 152.347 C 261.678 148.786,260.884 148.359,259.219 149.226 M246.415 153.203 C 245.396 154.090,245.059 156.078,244.934 161.932 L 244.844 166.207 245.762 167.166 C 248.350 169.871,250.764 167.996,251.055 163.057 C 251.169 161.118,251.348 158.379,251.454 156.971 C 251.748 153.049,248.974 150.975,246.415 153.203 M70.000 183.438 L 70.000 194.688 81.250 194.688 L 92.500 194.688 92.500 183.438 L 92.500 172.188 81.250 172.188 L 70.000 172.188 70.000 183.438 M226.727 212.578 C 226.639 212.965,226.348 214.377,226.081 215.716 C 225.813 217.055,225.167 219.586,224.644 221.341 C 224.122 223.096,223.620 224.848,223.530 225.234 L 223.365 225.938 256.814 225.938 L 290.263 225.938 290.443 225.078 C 290.786 223.445,291.875 214.347,291.875 213.113 L 291.875 211.875 259.381 211.875 L 226.887 211.875 226.727 212.578 " stroke="none" fill="#f3c032" fill-rule="evenodd"></path><path id="path2" d="M297.453 81.906 C 295.330 83.814,292.271 86.586,290.655 88.066 C 289.039 89.546,286.578 91.734,285.186 92.928 C 283.795 94.122,282.317 95.432,281.902 95.839 C 280.701 97.018,280.923 97.329,275.724 87.146 C 271.759 79.378,270.127 79.498,266.456 87.829 C 265.967 88.937,265.167 90.688,264.678 91.719 C 264.188 92.750,263.480 94.297,263.105 95.156 C 262.730 96.016,261.804 98.032,261.046 99.638 L 259.669 102.557 261.606 104.638 C 264.057 107.271,263.901 107.249,264.870 105.102 C 266.172 102.215,266.736 100.998,268.392 97.500 C 269.247 95.695,270.162 93.691,270.426 93.047 C 271.195 91.169,271.556 91.566,274.702 97.739 C 279.286 106.737,279.005 106.772,290.573 95.781 C 291.839 94.578,293.107 93.471,293.391 93.321 C 293.674 93.171,294.891 92.106,296.094 90.956 C 297.297 89.805,299.120 88.118,300.145 87.206 L 302.009 85.549 304.126 87.853 C 306.733 90.688,306.733 90.716,304.141 92.946 C 302.980 93.945,300.555 96.131,298.750 97.806 C 296.945 99.480,294.977 101.250,294.375 101.740 C 293.773 102.230,292.367 103.501,291.250 104.564 C 290.133 105.628,288.516 107.095,287.656 107.825 C 285.935 109.287,285.676 109.709,285.654 111.094 C 285.628 112.708,285.875 112.909,294.481 118.281 C 297.780 120.340,297.894 120.483,296.641 120.978 C 296.168 121.165,295.566 121.425,295.302 121.556 C 295.039 121.688,294.336 121.900,293.740 122.028 C 293.144 122.155,292.516 122.360,292.344 122.482 C 292.172 122.605,290.766 123.095,289.219 123.571 C 287.672 124.047,285.844 124.646,285.156 124.903 C 284.469 125.160,282.641 125.799,281.094 126.322 C 279.547 126.845,278.165 127.377,278.023 127.504 C 277.824 127.682,279.653 131.883,280.183 132.465 C 280.294 132.586,285.659 130.955,287.945 130.105 C 288.620 129.854,290.026 129.369,291.070 129.026 C 292.114 128.684,293.184 128.289,293.448 128.148 C 293.711 128.007,294.410 127.786,295.000 127.656 C 295.590 127.527,296.324 127.298,296.630 127.148 C 296.937 126.998,297.434 126.760,297.734 126.620 C 298.035 126.480,299.969 125.822,302.031 125.159 C 306.208 123.816,306.407 123.708,307.076 122.413 C 307.794 121.026,305.555 117.500,303.957 117.500 C 303.409 117.500,293.438 110.817,293.438 110.450 C 293.438 110.253,294.246 109.451,295.234 108.668 C 296.223 107.885,297.875 106.440,298.906 105.457 C 299.938 104.475,301.906 102.677,303.281 101.461 C 304.656 100.246,305.933 99.103,306.118 98.923 C 306.304 98.742,307.569 97.609,308.931 96.406 C 314.202 91.748,314.470 91.066,312.161 88.166 C 311.459 87.284,310.776 86.563,310.645 86.563 C 310.513 86.563,309.764 85.754,308.980 84.766 C 303.071 77.310,302.675 77.212,297.453 81.906 M294.471 188.254 C 293.346 189.221,293.179 192.289,294.190 193.406 C 294.768 194.044,294.614 196.010,293.826 198.066 C 293.707 198.376,294.035 198.452,295.185 198.378 L 296.702 198.281 297.702 195.625 C 299.891 189.814,297.910 185.296,294.471 188.254 M335.112 188.736 C 326.853 190.705,326.730 205.604,334.952 208.010 C 337.845 208.857,340.813 208.011,342.772 205.780 L 343.765 204.649 342.313 202.949 C 340.601 200.945,340.919 201.037,339.688 202.188 C 336.100 205.539,332.053 200.104,334.547 195.282 C 335.582 193.280,338.536 193.053,339.962 194.866 C 340.728 195.841,340.578 195.904,342.324 193.881 L 343.830 192.136 342.465 190.746 C 340.531 188.775,337.929 188.064,335.112 188.736 M300.000 191.392 L 300.000 193.721 302.109 193.814 L 304.219 193.906 304.303 200.859 L 304.387 207.813 306.719 207.813 L 309.051 207.813 309.135 200.859 L 309.219 193.906 311.328 193.814 L 313.438 193.721 313.438 191.392 L 313.438 189.063 306.719 189.063 L 300.000 189.063 300.000 191.392 M315.000 198.404 C 315.000 205.609,315.089 207.771,315.391 207.857 C 315.605 207.919,318.348 207.925,321.484 207.871 L 327.188 207.773 327.188 205.449 L 327.188 203.125 323.594 203.125 L 320.000 203.125 320.000 201.875 L 320.000 200.625 323.125 200.625 L 326.250 200.625 326.250 198.281 L 326.250 195.938 323.125 195.938 L 320.000 195.938 320.000 194.854 L 320.000 193.770 323.516 193.682 L 327.031 193.594 327.123 191.328 L 327.215 189.063 321.107 189.063 L 315.000 189.063 315.000 198.404 M345.313 198.419 C 345.313 203.565,345.418 207.824,345.547 207.884 C 345.676 207.943,346.801 207.940,348.047 207.877 L 350.313 207.761 350.313 204.336 L 350.313 200.911 352.734 201.002 L 355.156 201.094 355.156 204.454 L 355.156 207.813 357.084 207.813 C 358.144 207.813,359.234 207.898,359.506 208.002 C 359.950 208.173,360.000 207.221,360.000 198.627 L 360.000 189.063 357.656 189.063 C 355.998 189.063,355.308 189.177,355.296 189.453 C 355.287 189.668,355.252 191.109,355.218 192.656 L 355.156 195.469 352.734 195.560 L 350.313 195.651 350.313 192.357 L 350.313 189.063 347.813 189.063 L 345.313 189.063 345.313 198.419 M303.594 210.690 C 299.900 211.981,297.956 216.785,299.228 221.483 C 300.503 226.193,305.071 228.308,308.881 225.953 L 310.000 225.262 310.000 222.006 L 310.000 218.750 309.219 218.750 C 308.446 218.750,308.438 218.780,308.438 221.422 L 308.438 224.094 307.282 224.577 C 302.791 226.454,298.884 220.582,301.212 215.456 C 302.544 212.525,305.922 211.476,308.107 213.314 C 309.765 214.709,310.738 213.302,309.141 211.820 C 307.645 210.433,305.550 210.006,303.594 210.690 M314.896 214.583 C 314.781 214.698,314.688 217.510,314.688 220.833 L 314.688 226.875 315.469 226.875 C 316.248 226.875,316.250 226.866,316.264 223.828 C 316.286 218.774,317.107 216.563,318.961 216.563 C 319.587 216.563,319.688 216.407,319.688 215.435 C 319.688 214.074,318.610 214.122,317.109 215.550 L 316.250 216.367 316.250 215.371 C 316.250 214.409,315.504 213.975,314.896 214.583 M325.764 214.658 C 323.737 215.532,322.306 218.626,322.601 221.499 C 323.380 229.109,332.188 228.352,332.188 220.675 C 332.188 216.349,328.926 213.295,325.764 214.658 M336.157 214.573 C 335.821 214.908,335.900 222.820,336.251 224.086 C 336.968 226.668,340.151 227.759,342.124 226.100 L 343.125 225.257 343.125 226.066 C 343.125 226.722,343.274 226.875,343.913 226.875 L 344.701 226.875 344.616 220.703 C 344.534 214.768,344.507 214.531,343.906 214.531 C 343.321 214.531,343.271 214.792,343.124 218.594 C 342.934 223.490,342.222 225.000,340.104 225.000 C 338.157 225.000,337.670 223.880,337.500 219.015 C 337.345 214.588,337.066 213.663,336.157 214.573 M349.688 222.791 L 349.688 231.250 350.469 231.250 C 351.247 231.250,351.250 231.239,351.250 228.291 L 351.250 225.331 352.387 226.103 C 355.710 228.358,359.197 225.556,359.206 220.622 C 359.215 215.635,355.486 212.824,352.141 215.298 L 351.292 215.925 351.193 215.228 C 351.129 214.782,350.840 214.495,350.391 214.431 L 349.688 214.332 349.688 222.791 M329.379 217.192 C 330.982 218.908,330.982 222.342,329.379 224.058 C 326.835 226.782,323.244 223.263,324.355 219.135 C 325.080 216.443,327.724 215.420,329.379 217.192 M356.202 217.039 C 358.054 218.597,358.094 222.506,356.274 224.132 C 353.985 226.177,351.250 224.268,351.250 220.625 C 351.250 217.046,353.916 215.115,356.202 217.039 " stroke="none" fill="#080707" fill-rule="evenodd"></path><path id="path3" d="M91.640 122.250 L 91.717 172.031 91.797 122.420 L 91.877 72.809 139.454 72.852 C 187.825 72.896,193.699 72.996,200.625 73.884 C 222.493 76.690,239.760 84.685,256.942 99.958 L 259.531 102.260 256.811 99.594 C 243.321 86.375,224.190 77.075,204.219 74.029 C 195.404 72.685,197.289 72.729,143.203 72.595 L 91.563 72.468 91.640 122.250 M266.344 110.391 C 270.190 115.341,274.535 121.912,276.385 125.578 C 276.850 126.497,277.302 127.177,277.390 127.089 C 277.823 126.656,272.288 117.766,268.135 112.223 C 264.872 107.868,264.827 107.813,264.558 107.813 C 264.439 107.813,265.242 108.973,266.344 110.391 M280.424 133.438 C 280.505 133.695,281.212 135.421,281.995 137.273 C 283.883 141.737,285.971 147.974,287.478 153.655 C 288.153 156.199,288.715 158.033,288.728 157.731 C 288.793 156.134,285.460 145.112,283.122 139.193 C 281.869 136.018,279.941 131.908,280.424 133.438 M57.883 139.922 L 57.954 145.781 58.046 140.086 L 58.139 134.391 63.054 134.296 L 67.969 134.202 62.891 134.132 L 57.813 134.063 57.883 139.922 M155.625 196.241 L 155.625 255.039 172.422 254.917 C 191.029 254.783,191.556 254.732,198.031 252.470 C 207.801 249.057,216.064 241.398,221.062 231.122 C 222.844 227.460,223.463 225.938,223.172 225.938 C 223.043 225.938,222.753 226.465,222.526 227.109 C 218.371 238.925,207.546 249.420,196.094 252.735 C 190.154 254.455,188.055 254.616,171.016 254.660 L 155.938 254.698 155.937 196.334 L 155.937 137.969 171.797 138.008 C 188.604 138.050,190.133 138.158,195.469 139.683 C 207.781 143.202,217.571 152.580,222.805 165.869 C 223.027 166.434,223.273 166.831,223.350 166.754 C 223.597 166.508,220.982 160.922,219.319 158.143 C 213.829 148.965,206.593 143.010,197.085 139.846 C 191.006 137.823,190.019 137.734,171.953 137.581 L 155.625 137.443 155.625 196.241 M61.968 145.858 C 63.481 145.915,65.871 145.915,67.281 145.857 C 68.690 145.799,67.453 145.753,64.531 145.753 C 61.609 145.753,60.456 145.800,61.968 145.858 M288.758 158.776 C 288.762 159.020,288.899 159.800,289.064 160.511 C 290.325 165.973,291.727 177.063,292.072 184.297 L 292.284 188.750 285.192 188.750 L 278.100 188.750 278.190 191.328 L 278.281 193.906 280.391 193.999 L 282.500 194.091 282.500 201.120 L 282.500 208.149 285.234 208.059 L 287.969 207.969 288.053 201.016 L 288.137 194.063 290.310 194.063 L 292.483 194.063 292.584 198.672 C 292.655 201.918,292.696 201.155,292.723 196.094 C 292.783 184.749,291.715 172.470,289.823 162.763 C 289.072 158.915,288.738 157.665,288.758 158.776 M59.485 161.012 C 59.404 161.143,61.737 161.250,64.669 161.250 C 68.087 161.250,70.000 161.136,70.000 160.931 C 70.000 160.557,59.718 160.636,59.485 161.012 M57.883 167.734 L 57.813 173.125 63.984 173.054 L 70.156 172.983 64.148 172.891 L 58.140 172.799 58.046 167.571 L 57.953 162.344 57.883 167.734 M223.548 167.656 C 224.017 169.568,225.447 174.032,225.556 173.923 C 225.725 173.754,224.092 168.100,223.701 167.501 C 223.457 167.127,223.426 167.159,223.548 167.656 M225.687 174.844 C 225.687 175.188,225.800 175.820,225.938 176.250 C 226.136 176.869,226.188 176.901,226.188 176.406 C 226.188 176.063,226.075 175.430,225.938 175.000 C 225.739 174.381,225.687 174.349,225.687 174.844 M226.324 177.813 C 226.324 178.242,226.431 179.016,226.563 179.531 C 226.775 180.368,226.801 180.384,226.801 179.688 C 226.801 179.258,226.694 178.484,226.563 177.969 C 226.350 177.132,226.324 177.116,226.324 177.813 M227.087 182.656 C 227.494 187.664,227.788 189.771,227.610 186.406 C 227.519 184.688,227.324 182.648,227.177 181.875 C 226.964 180.760,226.946 180.921,227.087 182.656 M261.875 188.403 C 253.588 190.186,252.445 204.426,260.309 207.914 C 262.908 209.067,267.237 208.470,269.385 206.663 L 270.313 205.882 270.313 201.834 L 270.313 197.786 267.891 197.877 L 265.469 197.969 265.378 200.369 C 265.229 204.301,261.800 204.114,260.616 200.109 C 259.197 195.311,263.168 192.020,266.564 195.180 L 267.347 195.908 268.771 194.282 C 270.760 192.010,270.752 192.041,269.691 190.833 C 267.986 188.891,264.558 187.825,261.875 188.403 M230.313 198.438 L 230.313 208.125 234.886 208.125 C 243.078 208.125,246.140 205.683,246.422 198.927 L 246.527 196.406 246.248 199.051 C 245.545 205.696,242.815 207.808,234.922 207.811 L 230.625 207.813 230.625 198.410 L 230.625 189.008 235.547 189.117 C 242.409 189.268,244.303 190.383,245.813 195.156 C 246.047 195.895,246.217 196.139,246.229 195.753 C 246.265 194.619,244.417 191.356,243.222 190.445 C 241.336 189.006,240.233 188.779,235.078 188.764 L 230.313 188.750 230.313 198.438 M247.954 189.144 C 247.871 189.361,247.840 193.685,247.886 198.754 L 247.969 207.969 250.703 208.059 L 253.438 208.149 253.438 198.450 L 253.438 188.750 250.771 188.750 C 248.914 188.750,248.060 188.870,247.954 189.144 M267.031 189.344 C 267.719 189.663,268.739 190.405,269.299 190.994 L 270.316 192.065 268.797 193.761 L 267.278 195.457 266.128 194.447 C 263.396 192.048,260.172 194.119,260.161 198.281 C 260.152 201.707,261.967 203.783,264.547 203.299 C 265.719 203.079,265.927 202.573,265.933 199.922 L 265.938 198.125 267.978 198.125 L 270.019 198.125 269.931 202.073 L 269.844 206.020 268.125 206.994 C 263.156 209.811,257.337 207.429,255.736 201.923 C 253.326 193.633,260.075 186.116,267.031 189.344 M271.875 198.438 L 271.875 208.149 274.609 208.059 L 277.344 207.969 277.344 198.438 L 277.344 188.906 274.609 188.816 L 271.875 188.726 271.875 198.438 M253.125 198.438 L 253.125 207.813 250.625 207.813 L 248.125 207.813 248.125 198.438 L 248.125 189.063 250.625 189.063 L 253.125 189.063 253.125 198.438 M276.915 190.078 C 276.937 190.637,276.972 194.855,276.993 199.453 L 277.031 207.812 274.609 207.812 L 272.188 207.813 272.188 198.438 L 272.188 189.063 274.531 189.063 L 276.875 189.063 276.915 190.078 M292.136 191.406 L 292.163 193.750 289.988 193.750 L 287.813 193.750 287.813 200.781 L 287.813 207.813 285.313 207.813 L 282.813 207.813 282.813 200.781 L 282.813 193.750 280.625 193.750 L 278.438 193.750 278.438 191.406 L 278.438 189.063 285.273 189.063 L 292.109 189.063 292.136 191.406 M227.881 194.844 C 227.842 197.766,227.747 201.563,227.672 203.281 L 227.534 206.406 227.830 203.438 C 227.993 201.805,228.087 198.008,228.040 195.000 L 227.953 189.531 227.881 194.844 M58.021 193.646 C 57.906 193.760,57.813 196.573,57.813 199.896 L 57.813 205.938 63.984 205.867 L 70.156 205.796 64.141 205.704 L 58.125 205.612 58.125 199.837 L 58.125 194.063 64.063 194.063 C 67.813 194.063,70.000 193.947,70.000 193.750 C 70.000 193.400,58.368 193.298,58.021 193.646 M235.449 194.156 C 235.364 194.380,235.333 196.454,235.381 198.766 L 235.469 202.969 237.096 203.063 C 239.574 203.206,241.302 201.699,241.217 199.469 C 241.190 198.765,241.125 198.851,240.889 199.907 C 240.459 201.822,239.106 202.872,237.223 202.750 L 235.781 202.656 235.781 198.438 L 235.781 194.219 237.279 194.123 C 239.139 194.004,240.938 195.487,240.938 197.138 C 240.938 197.660,241.059 198.163,241.206 198.254 C 241.643 198.524,241.073 196.034,240.497 195.155 C 239.637 193.843,235.857 193.095,235.449 194.156 M91.563 226.719 L 91.563 258.750 68.616 258.750 L 45.670 258.750 45.023 259.573 C 44.377 260.395,44.375 260.474,44.450 289.495 L 44.525 318.594 44.684 289.272 C 44.840 260.703,44.859 259.938,45.450 259.506 C 45.961 259.133,49.675 259.063,68.966 259.063 L 91.875 259.063 91.875 226.875 C 91.875 209.172,91.805 194.688,91.719 194.688 C 91.633 194.688,91.563 209.102,91.563 226.719 M292.249 205.469 C 292.213 206.672,292.119 208.641,292.041 209.844 L 291.899 212.031 292.204 210.156 C 292.372 209.125,292.466 207.156,292.412 205.781 L 292.315 203.281 292.249 205.469 M227.059 208.934 C 226.940 210.247,226.907 211.386,226.986 211.465 C 227.065 211.544,227.230 210.538,227.353 209.228 C 227.476 207.918,227.508 206.779,227.426 206.696 C 227.343 206.614,227.178 207.621,227.059 208.934 M44.136 220.703 L 44.219 229.219 52.500 229.219 L 60.781 229.219 60.864 220.703 L 60.948 212.188 52.500 212.188 L 44.052 212.188 44.136 220.703 M60.625 220.625 L 60.625 228.750 52.500 228.750 L 44.375 228.750 44.375 220.625 L 44.375 212.500 52.500 212.500 L 60.625 212.500 60.625 220.625 M289.583 228.906 C 289.276 230.625,288.943 232.453,288.844 232.969 C 288.745 233.484,288.741 233.836,288.833 233.750 C 289.119 233.486,290.373 226.950,290.254 226.348 C 290.192 226.036,289.890 227.188,289.583 228.906 M287.683 237.711 C 276.166 285.244,240.421 316.266,193.594 319.367 C 184.531 319.968,45.937 319.784,45.259 319.170 C 44.937 318.879,44.687 318.806,44.687 319.003 C 44.687 319.976,46.461 320.000,118.215 320.000 C 190.829 320.000,194.226 319.954,202.188 318.871 C 226.393 315.579,248.951 303.462,263.793 285.781 C 264.371 285.094,264.925 284.461,265.025 284.375 C 267.194 282.511,274.866 270.677,278.498 263.594 C 282.694 255.407,289.340 236.300,288.679 234.319 C 288.623 234.152,288.175 235.678,287.683 237.711 " stroke="none" fill="#9a52c7" fill-rule="evenodd"></path><path id="path4" d="M90.027 71.999 C 89.756 72.325,89.669 84.654,89.682 121.061 L 89.698 169.688 81.099 169.688 L 72.500 169.688 72.500 165.976 C 72.500 159.456,72.018 158.946,65.724 158.805 L 61.199 158.703 61.321 153.492 L 61.443 148.281 65.493 148.195 C 69.217 148.115,69.617 148.048,70.474 147.365 L 71.406 146.623 71.511 141.436 L 71.616 136.250 74.541 136.250 C 77.181 136.250,77.550 136.177,78.342 135.496 L 79.219 134.742 79.219 129.570 C 79.219 122.836,79.455 123.063,72.031 122.654 L 68.281 122.448 67.188 123.376 L 66.094 124.304 65.938 128.324 L 65.781 132.344 61.531 132.430 C 55.781 132.548,55.984 132.323,55.868 138.711 L 55.781 143.493 49.688 143.544 C 45.670 143.578,43.301 143.726,42.734 143.978 L 41.875 144.360 41.875 154.175 L 41.875 163.990 42.578 164.178 C 42.965 164.282,46.129 164.368,49.609 164.371 L 55.938 164.375 55.938 168.726 L 55.937 173.077 56.887 174.027 C 58.232 175.372,60.393 175.635,63.522 174.834 C 63.998 174.712,65.228 174.799,66.256 175.027 L 68.125 175.441 68.125 182.815 C 68.125 188.056,68.012 190.431,67.734 191.029 L 67.344 191.870 62.288 191.873 L 57.233 191.875 56.585 192.698 C 55.979 193.470,55.937 193.921,55.937 199.831 C 55.937 206.766,55.872 206.521,58.043 207.734 C 58.875 208.199,62.380 208.259,62.656 207.813 C 62.768 207.632,64.464 207.500,66.683 207.500 C 72.070 207.500,72.500 206.978,72.500 200.448 L 72.500 196.563 81.094 196.563 L 89.688 196.563 89.688 226.908 C 89.688 255.703,89.660 257.241,89.141 256.987 C 88.047 256.451,46.625 256.486,45.548 257.023 C 45.022 257.285,44.462 257.500,44.305 257.500 C 43.956 257.500,43.414 258.071,42.891 258.992 C 42.586 259.528,42.500 266.244,42.500 289.629 L 42.500 319.579 43.223 320.258 L 43.947 320.938 123.430 320.938 C 191.676 320.937,203.139 320.874,204.504 320.487 C 205.378 320.240,207.570 319.804,209.375 319.518 C 211.180 319.232,212.938 318.882,213.281 318.739 C 213.625 318.597,214.328 318.416,214.844 318.338 C 215.806 318.193,217.547 317.626,218.511 317.146 C 218.810 316.997,219.451 316.875,219.936 316.875 C 220.421 316.875,221.091 316.669,221.425 316.416 C 221.758 316.164,222.339 315.953,222.716 315.947 C 223.093 315.942,223.488 315.797,223.594 315.625 C 223.700 315.453,223.990 315.313,224.239 315.313 C 224.487 315.313,225.419 314.961,226.310 314.531 C 227.201 314.102,228.113 313.750,228.337 313.750 C 228.561 313.750,230.538 312.854,232.731 311.758 C 234.924 310.663,237.211 309.531,237.813 309.243 C 238.414 308.954,239.539 308.309,240.313 307.808 C 241.086 307.307,242.141 306.660,242.656 306.369 C 243.172 306.079,244.326 305.300,245.221 304.639 C 246.116 303.978,246.945 303.438,247.064 303.438 C 247.182 303.438,247.856 302.972,248.562 302.404 C 249.267 301.835,250.373 301.049,251.020 300.657 C 251.666 300.265,252.323 299.705,252.480 299.413 C 252.636 299.121,253.162 298.676,253.648 298.425 C 254.654 297.905,264.163 288.536,265.370 286.875 C 265.807 286.273,266.622 285.334,267.181 284.788 C 267.741 284.241,268.639 283.091,269.177 282.232 C 269.716 281.373,270.824 279.739,271.641 278.601 C 272.457 277.463,273.125 276.410,273.125 276.261 C 273.125 276.112,273.245 275.943,273.391 275.885 C 273.631 275.791,274.899 273.936,275.811 272.344 C 276.007 272.000,276.817 270.594,277.609 269.219 C 279.373 266.156,282.524 259.776,284.500 255.265 C 284.775 254.638,285.000 253.928,285.000 253.687 C 285.000 253.447,285.116 253.116,285.257 252.953 C 285.399 252.790,285.775 251.813,286.093 250.781 C 286.411 249.750,286.999 248.177,287.398 247.285 C 287.798 246.393,288.125 245.320,288.125 244.899 C 288.125 244.478,288.335 243.731,288.592 243.239 C 288.849 242.747,289.060 242.027,289.061 241.641 C 289.062 241.254,289.203 240.938,289.375 240.938 C 289.547 240.938,289.688 240.373,289.688 239.683 C 289.687 238.993,289.819 238.185,289.979 237.886 C 290.583 236.763,291.366 232.829,291.860 228.438 C 292.151 225.854,292.997 221.757,293.442 220.781 C 293.823 219.945,294.014 216.925,294.246 208.053 L 294.440 200.638 295.999 200.431 C 297.980 200.168,299.688 198.355,299.688 196.514 C 299.688 196.063,299.926 195.938,300.781 195.938 L 301.875 195.938 301.875 201.386 C 301.875 204.383,302.011 207.192,302.177 207.629 C 302.435 208.307,302.363 208.506,301.689 208.978 C 299.609 210.434,298.967 211.172,297.934 213.290 C 296.139 216.971,296.400 222.616,298.469 224.864 C 298.795 225.219,299.063 225.649,299.063 225.821 C 299.063 226.838,302.372 228.742,304.570 228.990 C 310.184 229.622,314.237 224.298,312.207 218.957 C 310.822 215.316,306.071 216.752,306.110 220.799 C 306.130 222.857,305.484 223.084,304.032 221.529 C 301.269 218.572,303.772 213.684,307.296 215.156 C 310.826 216.632,313.327 213.765,311.097 210.799 C 310.379 209.846,310.379 209.842,310.970 208.755 C 311.492 207.796,311.563 206.967,311.563 201.802 C 311.563 196.146,311.585 195.938,312.188 195.938 C 312.789 195.938,312.813 196.146,312.813 201.416 C 312.813 209.938,312.575 209.699,321.406 210.062 L 327.656 210.319 328.481 209.411 C 328.935 208.912,329.460 208.243,329.648 207.924 C 329.867 207.550,330.074 207.461,330.229 207.673 C 332.313 210.529,337.767 211.329,341.662 209.349 C 343.504 208.413,343.525 208.410,344.182 209.008 C 347.497 212.027,352.188 209.907,352.188 205.390 C 352.188 202.267,352.725 202.268,352.859 205.392 C 353.038 209.594,355.645 211.329,359.665 209.922 C 361.664 209.222,361.579 209.769,361.489 198.225 L 361.406 187.664 360.542 187.250 C 359.368 186.688,355.894 186.720,354.765 187.304 C 353.326 188.048,353.039 188.625,352.880 191.098 C 352.790 192.511,352.610 193.349,352.424 193.234 C 352.240 193.120,352.198 192.316,352.321 191.236 C 352.610 188.680,352.338 187.885,350.979 187.311 C 348.913 186.438,345.052 186.776,344.109 187.913 C 343.759 188.334,343.475 188.264,341.696 187.320 C 338.134 185.431,333.240 186.125,330.570 188.900 C 329.848 189.650,329.063 189.496,329.063 188.604 C 329.063 187.225,328.068 187.033,320.670 186.986 C 301.573 186.863,299.963 186.790,298.508 185.988 C 297.531 185.448,296.806 185.280,295.804 185.360 L 294.436 185.469 294.258 181.875 C 293.882 174.306,293.671 171.707,293.407 171.379 C 293.256 171.192,292.979 169.930,292.790 168.575 C 292.602 167.219,292.319 165.870,292.161 165.576 C 292.004 165.282,291.875 164.287,291.875 163.364 C 291.875 162.442,291.748 161.554,291.593 161.391 C 291.438 161.227,291.237 160.461,291.146 159.688 C 290.911 157.669,290.197 154.465,289.922 154.192 C 289.793 154.063,289.688 153.568,289.688 153.091 C 289.688 152.615,289.563 152.148,289.412 152.054 C 289.260 151.960,289.039 151.110,288.921 150.165 C 288.803 149.220,288.575 148.367,288.416 148.268 C 288.256 148.169,288.125 147.819,288.125 147.490 C 288.125 147.162,287.773 146.098,287.344 145.126 C 286.914 144.155,286.562 143.131,286.561 142.852 C 286.560 142.572,286.349 141.941,286.092 141.449 C 285.835 140.956,285.625 140.357,285.625 140.116 C 285.625 139.876,285.500 139.435,285.347 139.136 C 285.194 138.838,284.858 138.102,284.599 137.500 C 284.048 136.221,283.352 134.621,283.215 134.321 C 283.058 133.980,285.024 133.125,285.967 133.125 C 286.446 133.125,286.925 132.984,287.031 132.813 C 287.137 132.641,287.559 132.500,287.969 132.500 C 288.378 132.500,288.789 132.377,288.882 132.226 C 288.976 132.075,290.285 131.564,291.792 131.090 C 293.298 130.617,294.883 130.050,295.313 129.831 C 295.742 129.613,296.797 129.199,297.656 128.911 C 298.516 128.624,299.500 128.274,299.844 128.134 C 300.650 127.805,304.213 126.611,305.625 126.197 C 310.681 124.714,310.731 118.679,305.710 115.939 C 303.357 114.655,301.745 113.654,299.994 112.387 C 299.011 111.676,297.942 110.927,297.619 110.723 C 297.066 110.374,304.364 102.500,305.241 102.500 C 305.375 102.500,306.326 101.691,307.356 100.703 C 310.133 98.037,312.903 95.625,313.187 95.625 C 314.483 95.625,315.761 92.332,315.423 89.866 C 315.232 88.470,311.428 83.468,308.718 81.050 C 308.306 80.683,307.355 79.658,306.604 78.774 C 303.766 75.428,301.063 75.577,297.143 79.294 C 296.279 80.112,295.339 80.911,295.052 81.069 C 294.766 81.227,292.870 82.985,290.839 84.975 C 288.808 86.965,286.884 88.734,286.563 88.906 C 286.243 89.078,285.061 90.098,283.938 91.172 C 281.275 93.719,281.437 93.803,278.906 88.585 C 277.703 86.105,276.635 84.072,276.532 84.069 C 276.429 84.065,276.087 83.491,275.772 82.793 C 274.346 79.629,271.284 78.688,268.368 80.517 C 267.277 81.202,263.750 87.446,263.750 88.693 C 263.750 88.896,263.609 89.063,263.438 89.063 C 263.266 89.063,263.125 89.224,263.125 89.421 C 263.125 89.719,262.248 91.694,260.892 94.449 C 260.745 94.747,260.625 95.204,260.625 95.465 C 260.625 95.725,260.520 95.939,260.391 95.940 C 260.262 95.942,259.883 96.565,259.549 97.325 L 258.942 98.707 258.143 98.111 C 257.703 97.783,256.296 96.536,255.015 95.339 C 253.735 94.142,252.334 92.979,251.902 92.754 C 251.471 92.528,250.643 91.887,250.063 91.328 C 249.483 90.770,248.862 90.313,248.683 90.313 C 248.504 90.313,247.836 89.855,247.199 89.297 C 246.562 88.738,245.571 88.000,244.998 87.656 C 244.424 87.313,243.241 86.587,242.368 86.044 C 240.351 84.789,238.957 84.003,237.188 83.122 C 236.414 82.737,235.570 82.305,235.313 82.163 C 233.777 81.312,228.469 78.788,227.813 78.596 C 226.951 78.345,225.146 77.607,224.301 77.161 C 224.003 77.004,223.544 76.875,223.281 76.875 C 223.019 76.875,222.560 76.742,222.261 76.579 C 220.771 75.766,215.481 74.265,212.344 73.764 C 211.484 73.626,209.656 73.231,208.281 72.884 C 202.970 71.546,203.738 71.563,146.018 71.563 C 98.802 71.563,90.334 71.628,90.027 71.999 M198.438 73.209 C 206.177 74.256,209.297 74.824,214.182 76.071 C 230.246 80.174,245.621 88.666,256.979 99.709 L 259.738 102.392 260.760 100.181 C 261.322 98.964,262.166 97.125,262.636 96.094 C 263.105 95.063,263.948 93.234,264.510 92.031 C 265.071 90.828,265.751 89.352,266.021 88.750 C 268.329 83.610,268.743 82.860,269.617 82.238 C 271.971 80.561,272.846 81.435,277.071 89.688 C 278.875 93.211,280.474 96.219,280.625 96.372 C 280.890 96.639,285.751 92.602,289.844 88.717 C 290.875 87.738,292.352 86.414,293.125 85.775 C 293.898 85.136,294.602 84.518,294.688 84.401 C 294.773 84.285,296.295 82.895,298.069 81.314 C 302.592 77.281,302.614 77.288,308.607 84.219 C 309.350 85.078,310.741 86.625,311.698 87.656 C 313.282 89.364,313.437 89.659,313.437 90.960 L 313.438 92.389 309.609 95.822 C 307.504 97.711,304.656 100.254,303.281 101.474 C 301.906 102.694,299.867 104.562,298.750 105.625 C 297.633 106.688,295.980 108.124,295.078 108.816 C 292.954 110.446,292.963 110.572,295.313 112.029 C 296.086 112.508,297.914 113.699,299.375 114.675 C 300.836 115.650,302.757 116.841,303.644 117.321 C 308.165 119.768,308.577 123.823,304.373 124.495 C 303.672 124.607,302.858 124.826,302.564 124.980 C 302.271 125.134,300.906 125.631,299.531 126.083 C 298.156 126.535,296.750 127.028,296.406 127.179 C 296.063 127.330,294.445 127.892,292.813 128.429 C 291.180 128.965,289.563 129.533,289.219 129.690 C 288.875 129.847,287.820 130.208,286.875 130.492 C 283.589 131.478,280.464 132.570,279.688 133.003 L 278.906 133.439 279.714 133.261 C 282.295 132.692,289.179 155.639,291.254 171.727 C 292.755 183.366,293.224 202.403,292.217 210.781 C 292.031 212.328,291.668 215.422,291.410 217.656 C 289.946 230.331,288.635 236.691,285.419 246.719 C 282.437 256.017,277.542 266.340,272.232 274.531 C 270.953 276.504,265.471 283.992,265.025 284.375 C 264.925 284.461,264.371 285.094,263.793 285.781 C 247.281 305.452,222.802 317.438,194.564 319.680 C 187.649 320.229,45.897 320.112,45.138 319.556 C 44.144 318.830,44.029 260.837,45.018 259.579 L 45.670 258.750 68.616 258.750 L 91.563 258.750 91.563 226.719 L 91.563 194.688 80.781 194.688 L 70.000 194.688 70.000 200.313 L 70.000 205.938 63.900 205.938 L 57.799 205.938 57.884 199.766 L 57.969 193.594 63.984 193.509 L 70.000 193.424 70.000 183.275 L 70.000 173.125 63.892 173.125 L 57.785 173.125 57.877 167.734 L 57.969 162.344 50.391 162.433 L 42.813 162.521 42.813 154.073 L 42.813 145.625 49.922 145.628 C 53.832 145.630,57.559 145.719,58.203 145.826 L 59.375 146.019 59.375 153.413 L 59.375 160.808 64.688 160.703 L 70.000 160.597 70.000 166.392 L 70.000 172.188 80.859 172.188 L 91.719 172.188 91.639 122.328 L 91.559 72.468 143.201 72.595 C 187.686 72.705,195.342 72.790,198.438 73.209 M300.143 87.208 C 299.119 88.119,297.297 89.803,296.094 90.950 C 294.891 92.097,293.594 93.242,293.213 93.494 C 292.831 93.746,291.343 95.067,289.905 96.429 C 281.727 104.180,280.349 105.131,278.699 104.168 C 277.707 103.589,274.926 98.788,272.438 93.359 C 271.627 91.589,271.069 91.484,270.442 92.984 C 269.639 94.907,268.128 98.259,267.808 98.828 C 267.307 99.718,266.979 100.388,266.317 101.875 C 265.973 102.648,265.299 104.125,264.821 105.156 C 264.342 106.188,263.979 107.196,264.015 107.398 C 264.050 107.600,263.935 107.855,263.758 107.964 C 263.582 108.073,263.442 108.329,263.447 108.534 C 263.452 108.739,263.600 108.660,263.775 108.359 C 264.157 107.703,264.650 107.659,265.122 108.239 C 268.101 111.899,272.120 117.655,274.534 121.719 C 277.112 126.060,277.533 126.881,277.339 127.195 C 277.022 127.708,277.680 127.549,281.173 126.273 C 283.020 125.599,285.305 124.810,286.250 124.521 C 287.195 124.232,288.953 123.650,290.156 123.228 C 291.359 122.805,293.434 122.103,294.767 121.667 C 298.001 120.609,298.003 120.623,294.313 118.245 C 286.371 113.126,285.952 112.822,285.753 112.032 C 285.359 110.460,285.872 109.282,287.572 107.862 C 288.464 107.116,290.466 105.327,292.019 103.888 C 294.631 101.468,300.741 95.918,304.618 92.444 C 306.663 90.611,306.665 90.628,304.118 87.855 L 302.004 85.553 300.143 87.208 M302.714 89.429 C 303.659 90.317,303.627 90.803,302.578 91.466 C 302.105 91.765,300.279 93.414,298.519 95.131 C 296.760 96.848,295.072 98.384,294.769 98.544 C 294.466 98.705,292.936 100.047,291.369 101.528 C 289.801 103.008,287.518 105.110,286.295 106.199 C 283.290 108.875,282.870 110.381,284.290 113.385 C 284.697 114.244,287.690 116.875,288.261 116.875 C 288.351 116.875,289.513 117.570,290.844 118.419 L 293.264 119.962 292.335 120.317 C 291.824 120.512,290.633 120.873,289.688 121.119 C 287.121 121.787,284.882 122.542,284.547 122.851 C 284.384 123.002,283.995 123.125,283.683 123.125 C 283.372 123.125,282.872 123.249,282.574 123.401 C 280.177 124.620,278.515 124.804,278.010 123.906 C 277.816 123.563,277.367 122.859,277.011 122.344 C 276.655 121.828,275.881 120.586,275.291 119.583 C 273.027 115.732,272.663 115.189,270.783 112.861 C 270.181 112.114,269.688 111.409,269.688 111.293 C 269.688 111.177,269.108 110.382,268.400 109.526 C 266.701 107.470,266.413 106.681,267.023 105.750 C 267.285 105.350,267.500 104.804,267.500 104.537 C 267.500 104.270,268.237 102.612,269.137 100.854 C 270.037 99.095,270.940 97.234,271.144 96.719 C 271.348 96.203,271.526 96.016,271.539 96.302 C 271.552 96.589,271.668 96.870,271.797 96.927 C 272.050 97.040,272.819 98.588,273.453 100.261 C 273.670 100.834,274.007 101.467,274.201 101.667 C 274.396 101.867,274.791 102.535,275.079 103.150 C 277.251 107.783,281.957 107.537,286.030 102.578 C 286.348 102.191,286.773 101.874,286.976 101.872 C 287.178 101.871,288.188 101.032,289.219 100.009 C 290.250 98.985,291.270 98.143,291.484 98.136 C 291.699 98.130,291.875 97.945,291.875 97.725 C 291.875 97.505,292.178 97.119,292.548 96.866 C 294.122 95.791,296.879 93.369,299.063 91.142 C 301.667 88.486,301.696 88.473,302.714 89.429 M228.533 114.934 C 228.328 115.065,228.771 115.168,229.517 115.164 C 230.264 115.160,230.811 115.051,230.732 114.922 C 230.546 114.618,229.016 114.627,228.533 114.934 M232.188 116.406 C 232.771 117.008,233.318 117.500,233.404 117.500 C 233.490 117.500,233.083 117.008,232.500 116.406 C 231.917 115.805,231.370 115.313,231.284 115.313 C 231.198 115.313,231.604 115.805,232.188 116.406 M226.250 118.263 C 226.250 118.682,226.365 119.097,226.506 119.184 C 226.647 119.271,226.701 118.928,226.627 118.421 C 226.463 117.304,226.250 117.215,226.250 118.263 M235.938 120.469 C 236.871 121.414,237.705 122.188,237.791 122.188 C 237.877 122.188,237.184 121.414,236.250 120.469 C 235.316 119.523,234.482 118.750,234.396 118.750 C 234.310 118.750,235.004 119.523,235.938 120.469 M229.531 122.813 C 230.203 123.500,230.822 124.063,230.908 124.063 C 230.994 124.063,230.515 123.500,229.844 122.813 C 229.172 122.125,228.553 121.563,228.467 121.563 C 228.381 121.563,228.860 122.125,229.531 122.813 M77.188 129.531 L 77.188 134.375 73.950 134.375 C 72.169 134.375,70.060 134.286,69.262 134.176 L 67.813 133.978 67.813 129.333 L 67.813 124.688 72.500 124.688 L 77.188 124.688 77.188 129.531 M232.656 126.250 C 233.328 126.938,233.947 127.500,234.033 127.500 C 234.119 127.500,233.640 126.938,232.969 126.250 C 232.297 125.563,231.678 125.000,231.592 125.000 C 231.506 125.000,231.985 125.563,232.656 126.250 M220.516 133.359 C 220.436 133.488,221.377 133.555,222.607 133.508 C 226.414 133.363,226.854 133.227,223.690 133.175 C 222.025 133.148,220.596 133.230,220.516 133.359 M229.145 133.662 C 229.620 133.734,230.323 133.732,230.707 133.657 C 231.092 133.583,230.703 133.525,229.844 133.527 C 228.984 133.529,228.670 133.590,229.145 133.662 M68.238 134.261 L 69.688 134.460 69.688 140.199 L 69.688 145.938 64.922 145.934 C 62.301 145.932,59.629 145.843,58.984 145.737 L 57.813 145.543 57.813 139.803 L 57.813 134.063 62.300 134.063 C 64.768 134.063,67.440 134.152,68.238 134.261 M218.510 136.250 C 218.510 136.852,218.574 137.098,218.653 136.797 C 218.732 136.496,218.732 136.004,218.653 135.703 C 218.574 135.402,218.510 135.648,218.510 136.250 M234.460 136.875 C 234.460 137.648,234.521 137.965,234.596 137.578 C 234.670 137.191,234.670 136.559,234.596 136.172 C 234.521 135.785,234.460 136.102,234.460 136.875 M155.937 196.334 L 155.938 254.698 171.016 254.660 C 188.055 254.616,190.154 254.455,196.094 252.735 C 207.578 249.411,217.746 239.577,222.513 227.188 C 222.744 226.586,223.019 226.023,223.124 225.938 C 223.229 225.852,223.686 224.586,224.140 223.125 C 229.266 206.621,229.043 184.379,223.589 167.937 C 219.510 155.640,210.251 145.338,199.375 140.995 C 192.697 138.328,190.168 138.054,171.797 138.008 L 155.937 137.969 155.937 196.334 M188.906 140.167 C 190.109 140.279,191.234 140.482,191.406 140.619 C 191.578 140.756,192.457 140.967,193.359 141.088 C 194.261 141.209,195.078 141.436,195.174 141.592 C 195.271 141.748,195.684 141.875,196.094 141.875 C 196.503 141.875,196.925 142.016,197.031 142.188 C 197.137 142.359,197.457 142.500,197.741 142.500 C 198.951 142.500,204.150 145.390,207.813 148.097 C 211.128 150.549,215.668 156.035,217.859 160.234 C 218.060 160.621,218.343 160.938,218.488 160.938 C 218.632 160.938,218.750 161.129,218.750 161.362 C 218.750 161.596,219.170 162.615,219.684 163.628 C 220.197 164.640,220.620 165.609,220.623 165.781 C 220.626 165.953,220.815 166.451,221.043 166.888 C 221.271 167.325,221.715 168.631,222.029 169.791 C 222.343 170.951,222.718 171.973,222.862 172.062 C 223.007 172.151,223.125 172.640,223.125 173.148 C 223.125 173.655,223.258 174.315,223.421 174.614 C 223.585 174.912,223.804 175.821,223.908 176.633 C 224.013 177.446,224.231 178.192,224.393 178.292 C 224.555 178.392,224.688 179.302,224.688 180.313 C 224.688 181.323,224.806 182.224,224.951 182.314 C 225.096 182.403,225.304 184.335,225.412 186.606 C 225.521 188.877,225.754 190.879,225.930 191.055 C 226.361 191.486,226.355 199.770,225.922 200.203 C 225.742 200.383,225.509 202.526,225.405 204.964 C 225.301 207.403,225.097 209.471,224.951 209.561 C 224.806 209.651,224.688 210.613,224.688 211.699 C 224.688 212.785,224.477 214.179,224.219 214.796 C 223.961 215.413,223.750 216.336,223.750 216.847 C 223.750 217.358,223.609 217.863,223.438 217.969 C 223.266 218.075,223.125 218.567,223.125 219.063 C 223.125 219.558,222.992 220.045,222.831 220.145 C 222.669 220.245,222.437 220.990,222.315 221.799 C 222.194 222.609,221.834 223.735,221.516 224.301 C 221.198 224.868,220.938 225.493,220.938 225.691 C 220.938 226.289,218.107 231.887,216.663 234.144 C 215.920 235.306,215.313 236.368,215.313 236.504 C 215.313 236.641,214.820 237.229,214.219 237.812 C 213.617 238.396,213.125 238.991,213.125 239.136 C 213.125 239.281,212.563 239.951,211.875 240.625 C 211.188 241.299,210.625 241.996,210.625 242.175 C 210.625 242.354,210.483 242.500,210.310 242.500 C 210.004 242.500,209.672 242.765,207.031 245.121 C 206.344 245.734,205.682 246.239,205.561 246.243 C 205.439 246.247,204.807 246.612,204.155 247.055 C 202.983 247.850,199.236 249.688,198.787 249.688 C 198.659 249.687,198.001 249.953,197.324 250.276 C 196.648 250.600,195.497 250.964,194.767 251.085 C 194.038 251.206,193.361 251.433,193.264 251.590 C 193.167 251.747,192.402 251.875,191.563 251.875 C 190.723 251.875,189.950 252.016,189.844 252.188 C 189.719 252.389,183.955 252.500,173.575 252.500 L 157.500 252.500 157.500 196.079 L 157.500 139.659 172.109 139.811 C 180.145 139.895,187.703 140.055,188.906 140.167 M228.984 139.908 C 229.371 139.983,230.004 139.983,230.391 139.908 C 230.777 139.834,230.461 139.773,229.688 139.773 C 228.914 139.773,228.598 139.834,228.984 139.908 M242.736 144.297 C 243.141 144.684,243.711 144.991,244.002 144.980 C 244.354 144.967,244.272 144.857,243.756 144.651 C 243.330 144.481,242.761 144.174,242.491 143.968 C 242.221 143.762,242.332 143.910,242.736 144.297 M233.267 147.891 L 232.031 149.219 233.359 147.983 C 234.595 146.835,234.831 146.563,234.595 146.563 C 234.544 146.563,233.946 147.160,233.267 147.891 M230.142 150.703 L 228.906 152.031 230.234 150.796 C 231.470 149.647,231.706 149.375,231.470 149.375 C 231.419 149.375,230.821 149.973,230.142 150.703 M257.266 152.031 C 257.270 152.719,257.334 152.963,257.409 152.574 C 257.483 152.186,257.480 151.623,257.402 151.324 C 257.324 151.026,257.263 151.344,257.266 152.031 M237.169 152.836 L 235.469 154.423 237.266 152.933 C 238.915 151.566,239.234 151.250,238.966 151.250 C 238.913 151.250,238.104 151.964,237.169 152.836 M227.483 153.047 L 226.406 154.219 227.578 153.142 C 228.669 152.139,228.894 151.875,228.655 151.875 C 228.603 151.875,228.075 152.402,227.483 153.047 M247.891 152.403 C 248.191 152.482,248.684 152.482,248.984 152.403 C 249.285 152.324,249.039 152.260,248.438 152.260 C 247.836 152.260,247.590 152.324,247.891 152.403 M258.750 154.844 C 259.333 155.445,259.880 155.938,259.966 155.938 C 260.052 155.938,259.646 155.445,259.063 154.844 C 258.479 154.242,257.932 153.750,257.846 153.750 C 257.760 153.750,258.167 154.242,258.750 154.844 M225.979 155.842 C 225.948 156.813,226.120 157.343,226.641 157.889 C 227.027 158.293,227.138 158.363,226.887 158.043 C 226.636 157.723,226.339 156.802,226.226 155.996 L 226.021 154.531 225.979 155.842 M245.073 155.938 C 245.073 156.539,245.137 156.785,245.215 156.484 C 245.294 156.184,245.294 155.691,245.215 155.391 C 245.137 155.090,245.073 155.336,245.073 155.938 M232.483 157.109 L 231.406 158.281 232.578 157.204 C 233.669 156.202,233.894 155.938,233.655 155.938 C 233.603 155.938,233.075 156.465,232.483 157.109 M251.350 159.375 C 251.350 160.492,251.407 160.949,251.476 160.391 C 251.545 159.832,251.545 158.918,251.476 158.359 C 251.407 157.801,251.350 158.258,251.350 159.375 M244.784 161.406 C 244.786 162.438,244.844 162.822,244.914 162.260 C 244.984 161.698,244.982 160.855,244.911 160.385 C 244.839 159.915,244.783 160.375,244.784 161.406 M251.031 164.063 C 251.031 165.008,251.090 165.395,251.161 164.922 C 251.233 164.449,251.233 163.676,251.161 163.203 C 251.090 162.730,251.031 163.117,251.031 164.063 M297.793 188.047 C 299.252 189.228,299.185 191.750,297.586 195.938 L 296.691 198.281 295.180 198.378 C 294.020 198.453,293.706 198.378,293.829 198.058 C 294.549 196.181,294.720 193.992,294.193 193.409 C 291.792 190.756,295.085 185.853,297.793 188.047 M339.596 188.908 C 341.008 189.327,343.781 191.496,343.736 192.146 C 343.729 192.255,343.029 193.117,342.182 194.063 L 340.640 195.781 340.123 195.045 C 338.790 193.147,335.768 193.223,334.626 195.183 C 331.937 199.801,336.089 205.549,339.688 202.188 C 340.920 201.036,340.593 200.935,342.370 203.016 L 343.878 204.781 342.268 206.262 C 336.591 211.481,328.945 206.995,328.932 198.438 C 328.921 191.280,333.576 187.120,339.596 188.908 M260.085 189.405 C 254.009 192.412,253.608 203.255,259.429 207.103 C 261.451 208.440,265.668 208.387,268.125 206.994 L 269.844 206.020 269.931 202.073 L 270.019 198.125 267.978 198.125 L 265.938 198.125 265.933 199.922 C 265.927 202.573,265.719 203.079,264.547 203.299 C 261.967 203.783,260.152 201.707,260.161 198.281 C 260.172 194.119,263.396 192.048,266.128 194.447 L 267.278 195.457 268.797 193.761 L 270.316 192.065 269.299 190.994 C 267.134 188.716,262.937 187.993,260.085 189.405 M313.438 191.236 L 313.438 193.721 311.328 193.814 L 309.219 193.906 309.135 201.016 L 309.051 208.125 306.719 208.125 L 304.387 208.125 304.303 201.016 L 304.219 193.906 302.109 193.814 L 300.000 193.721 300.000 191.236 L 300.000 188.750 306.719 188.750 L 313.438 188.750 313.438 191.236 M327.031 191.250 L 327.031 193.594 323.516 193.682 L 320.000 193.770 320.000 194.854 L 320.000 195.938 323.125 195.938 L 326.250 195.938 326.250 198.281 L 326.250 200.625 323.125 200.625 L 320.000 200.625 320.000 201.865 L 320.000 203.105 323.672 203.193 L 327.344 203.281 327.344 205.625 L 327.344 207.969 321.172 208.053 L 315.000 208.138 315.000 198.652 C 315.000 193.435,315.097 189.070,315.215 188.952 C 315.333 188.833,318.040 188.775,321.231 188.821 L 327.031 188.906 327.031 191.250 M350.245 192.266 L 350.334 195.625 352.656 195.625 L 354.979 195.625 355.068 192.266 L 355.156 188.906 357.578 188.815 L 360.000 188.724 360.000 198.438 L 360.000 208.151 357.578 208.060 L 355.156 207.969 355.068 204.453 L 354.980 200.938 352.656 200.938 L 350.333 200.938 350.245 204.453 L 350.156 207.969 347.813 207.969 L 345.469 207.969 345.386 198.754 C 345.287 187.743,345.046 188.699,347.886 188.814 L 350.156 188.906 350.245 192.266 M230.625 198.410 L 230.625 207.813 234.922 207.811 C 243.128 207.807,246.094 205.325,246.094 198.460 C 246.094 191.550,243.549 189.296,235.547 189.118 L 230.625 189.008 230.625 198.410 M248.125 198.438 L 248.125 207.813 250.625 207.813 L 253.125 207.813 253.125 198.438 L 253.125 189.063 250.625 189.063 L 248.125 189.063 248.125 198.438 M272.188 198.438 L 272.188 207.813 274.609 207.812 L 277.031 207.812 276.993 199.453 C 276.972 194.855,276.937 190.637,276.915 190.078 L 276.875 189.063 274.531 189.063 L 272.188 189.063 272.188 198.438 M278.438 191.406 L 278.438 193.750 280.625 193.750 L 282.813 193.750 282.813 200.781 L 282.813 207.813 285.313 207.813 L 287.813 207.813 287.813 200.781 L 287.813 193.750 289.988 193.750 L 292.163 193.750 292.136 191.406 L 292.109 189.063 285.273 189.063 L 278.438 189.063 278.438 191.406 M239.358 194.146 C 243.258 196.120,241.434 203.313,237.096 203.063 L 235.469 202.969 235.381 198.766 C 235.333 196.454,235.364 194.380,235.449 194.156 C 235.651 193.631,238.326 193.624,239.358 194.146 M338.981 196.563 C 340.371 197.308,341.103 197.342,342.301 196.717 C 342.794 196.460,343.251 196.250,343.317 196.250 C 343.383 196.250,343.438 197.238,343.438 198.446 L 343.438 200.641 342.516 200.164 C 341.276 199.523,340.217 199.564,338.756 200.310 C 337.236 201.085,336.742 200.904,336.117 199.343 C 335.069 196.723,336.567 195.269,338.981 196.563 M42.941 211.414 C 41.842 212.580,41.306 216.799,42.188 217.344 C 42.374 217.459,42.500 219.476,42.500 222.344 C 42.500 225.211,42.374 227.229,42.188 227.344 C 41.570 227.725,41.892 229.031,42.837 229.976 L 43.798 230.938 52.466 230.938 L 61.133 230.938 62.012 230.020 L 62.891 229.102 62.924 220.645 L 62.956 212.189 62.096 211.329 L 61.237 210.469 52.622 210.376 L 44.007 210.284 42.941 211.414 M307.166 210.619 C 308.299 210.944,310.000 212.366,310.000 212.989 C 310.000 213.980,309.086 214.137,308.107 213.314 C 306.031 211.567,302.726 212.537,301.328 215.303 C 298.872 220.164,302.410 226.076,306.921 224.649 L 308.281 224.219 308.438 221.406 C 308.583 218.783,308.641 218.587,309.297 218.494 C 309.989 218.396,310.000 218.446,310.000 221.828 L 310.000 225.262 308.881 225.953 C 304.097 228.910,298.968 225.199,298.924 218.750 C 298.885 212.977,302.602 209.310,307.166 210.619 M325.625 212.568 C 324.680 212.922,323.517 213.486,323.040 213.820 L 322.174 214.427 321.250 213.438 C 320.343 212.467,320.288 212.452,318.210 212.643 C 312.805 213.140,312.969 212.885,312.969 220.834 C 312.969 227.785,313.204 228.438,315.710 228.438 C 318.098 228.438,318.750 227.225,318.750 222.787 L 318.750 219.079 319.672 218.602 C 320.179 218.340,320.636 218.125,320.688 218.126 C 320.739 218.126,320.781 219.440,320.781 221.046 C 320.781 224.818,321.813 227.126,323.882 227.980 C 326.292 228.975,326.595 229.062,327.593 229.056 C 328.810 229.048,331.909 227.506,332.353 226.687 C 332.531 226.361,332.940 225.602,333.263 225.000 L 333.851 223.906 334.150 224.844 C 335.067 227.712,338.540 229.494,341.836 228.788 C 342.734 228.595,343.859 228.438,344.336 228.438 C 346.361 228.438,346.563 227.720,346.563 220.506 C 346.563 213.634,346.464 213.103,345.090 212.543 C 342.423 211.457,341.158 213.187,340.944 218.214 C 340.803 221.519,340.709 222.039,340.234 222.129 C 339.736 222.224,339.688 221.865,339.688 218.046 C 339.688 213.166,339.335 212.452,336.894 212.388 C 335.202 212.343,334.309 213.241,334.068 215.228 L 333.886 216.719 333.346 215.712 C 332.637 214.391,331.726 213.567,330.174 212.844 C 328.189 211.920,327.468 211.876,325.625 212.568 M353.594 212.233 C 353.078 212.404,352.054 212.532,351.318 212.519 C 347.624 212.451,347.344 213.212,347.344 223.304 L 347.344 231.513 348.101 232.319 C 350.034 234.375,353.750 232.875,353.750 230.039 C 353.750 228.841,353.822 228.713,354.453 228.783 C 358.412 229.220,361.568 225.640,361.564 220.715 C 361.560 215.502,357.326 210.996,353.594 212.233 M60.864 220.703 L 60.781 229.219 52.500 229.219 L 44.219 229.219 44.136 220.703 L 44.052 212.188 52.500 212.188 L 60.948 212.188 60.864 220.703 M316.250 215.371 L 316.250 216.367 317.109 215.550 C 318.610 214.122,319.688 214.074,319.688 215.435 C 319.688 216.407,319.587 216.563,318.961 216.563 C 317.153 216.563,316.270 218.936,316.258 223.828 C 316.250 226.868,316.248 226.875,315.469 226.875 L 314.688 226.875 314.688 220.833 C 314.688 214.587,314.720 214.375,315.677 214.375 C 316.113 214.375,316.250 214.614,316.250 215.371 M329.945 215.273 C 333.060 217.491,332.925 224.039,329.719 226.169 C 326.254 228.472,322.185 225.047,322.577 220.158 C 322.958 215.415,326.679 212.948,329.945 215.273 M337.549 218.934 C 337.666 223.893,338.132 225.000,340.104 225.000 C 342.287 225.000,343.125 223.095,343.125 218.135 L 343.125 214.375 343.906 214.375 L 344.688 214.375 344.688 220.625 L 344.688 226.875 343.906 226.875 C 343.274 226.875,343.125 226.721,343.125 226.066 L 343.125 225.257 342.124 226.100 C 341.262 226.824,340.912 226.922,339.620 226.798 C 336.587 226.506,335.938 225.117,335.938 218.916 L 335.938 214.375 336.689 214.375 L 337.441 214.375 337.549 218.934 M351.191 215.212 L 351.288 215.893 352.406 215.134 C 355.693 212.903,359.224 215.756,359.198 220.622 C 359.172 225.641,355.757 228.390,352.387 226.103 L 351.250 225.331 351.250 228.291 C 351.250 231.239,351.247 231.250,350.469 231.250 L 349.688 231.250 349.688 222.791 L 349.688 214.332 350.391 214.431 C 350.834 214.494,351.130 214.782,351.191 215.212 M325.477 217.273 C 322.623 220.127,324.690 225.773,328.261 224.877 C 330.989 224.192,331.347 218.062,328.737 216.712 C 327.385 216.013,326.602 216.148,325.477 217.273 M353.125 216.650 C 349.979 218.222,351.046 225.000,354.440 225.000 C 356.348 225.000,357.344 223.500,357.344 220.625 C 357.344 217.062,355.596 215.415,353.125 216.650 M327.946 219.241 C 328.646 219.941,328.587 221.773,327.852 222.166 C 326.671 222.798,325.602 220.148,326.625 219.125 C 327.119 218.631,327.357 218.652,327.946 219.241 M354.938 220.571 C 355.023 222.024,354.968 222.188,354.391 222.188 C 353.833 222.188,353.750 221.992,353.750 220.677 C 353.750 218.103,354.789 218.011,354.938 220.571 " stroke="none" fill="#a09da3" fill-rule="evenodd"></path></g></svg>